VIDEO INFO:

Format                           : AVI
Format/Info                      : Audio Video Interleave
File size                        : 1.76 GiB
Duration                         : 1h 54mn
Overall bit rate                 : 2 192 Kbps
Writing application              : VirtualDubMod 1.5.4.1 (build 2178/release)
Writing library                  : VirtualDubMod build 2178/release

Video
ID                               : 0
Format                           : MPEG-4 Visual
Format profile                   : Advanced Simple@L5
Format settings, BVOP            : Yes
Format settings, QPel            : No
Format settings, GMC             : No warppoints
Format settings, Matrix          : Custom
Codec ID                         : XVID
Codec ID/Hint                    : XviD
Duration                         : 1h 54mn
Bit rate                         : 1 801 Kbps
Width                            : 720 pixels
Height                           : 416 pixels
Display aspect ratio             : 16:9
Frame rate                       : 25.000 fps
Color space                      : YUV
Chroma subsampling               : 4:2:0
Bit depth                        : 8 bits
Scan type                        : Progressive
Compression mode                 : Lossy
Bits/(Pixel*Frame)               : 0.241
Stream size                      : 1.44 GiB (82%)
Writing library                  : XviD 58

Audio
ID                               : 1
Format                           : AC-3
Format/Info                      : Audio Coding 3
Mode extension                   : CM (complete main)
Codec ID                         : 2000
Duration                         : 1h 54mn
Bit rate mode                    : Constant
Bit rate                         : 384 Kbps
Channel(s)                       : 6 channels
Channel positions                : Front: L C R, Side: L R, LFE
Sampling rate                    : 48.0 KHz
Bit depth                        : 16 bits
Compression mode                 : Lossy
Stream size                      : 315 MiB (18%)
Alignment                        : Aligned on interleaves
Interleave, duration             : 96 ms (2.40 video frames)
Interleave, preload duration     : 96 ms

_________________________

Verenigde Staten
Komedie
120 minuten

geregisseerd door Joe Dante
met Dennis Quaid, Martin Short en Meg Ryan

Luitenant Pendelton participeert in een experiment waarbij hij tot de grootte van een molecuul wordt gereduceerd. Maar hij wordt gestolen en komt per ongeluk met zijn capsule terecht in de bloedbanen van de slome Jack die zich tot held moet ontwikkelen om Pendelton te redden. Hun enige hoop is de vriendin van Pendelton, die journalist is. Maar Jack wordt verliefd op haar en zo wordt het alleen nog maar moeilijker.

Ondertiteling: Nederlands (.srt, bijgevoegd)